<?xml version="1.0" encoding="utf-8"?>
<svg class="footer-icon" height="32px" width="32px" viewBox="0 0 32 32">
  <path
    d="M 16 3.808 C 9.093 3.808 3.5 9.401 3.5 16.308 C 3.5 21.84 7.078 26.511 12.047 28.168 C 12.672 28.276 12.907 27.901 12.907 27.573 C 12.907 27.276 12.89 26.293 12.89 25.246 C 9.75 25.823 8.938 24.48 8.688 23.776 C 8.547 23.418 7.938 22.308 7.407 22.011 C 6.968 21.776 6.343 21.198 7.39 21.183 C 8.375 21.168 9.078 22.09 9.313 22.465 C 10.438 24.355 12.235 23.823 12.953 23.496 C 13.063 22.683 13.39 22.136 13.75 21.823 C 10.968 21.511 8.063 20.433 8.063 15.651 C 8.063 14.293 8.547 13.168 9.343 12.293 C 9.218 11.98 8.782 10.698 9.468 8.98 C 9.468 8.98 10.515 8.651 12.907 10.261 C 13.923 9.978 14.975 9.838 16.032 9.84 C 17.093 9.84 18.157 9.98 19.157 10.261 C 21.547 8.636 22.593 8.98 22.593 8.98 C 23.282 10.698 22.843 11.98 22.718 12.293 C 23.515 13.168 24 14.276 24 15.651 C 24 20.448 21.078 21.511 18.297 21.823 C 18.75 22.215 19.14 22.965 19.14 24.136 C 19.14 25.808 19.125 27.151 19.125 27.573 C 19.125 27.901 19.36 28.293 19.985 28.168 C 24.922 26.511 28.5 21.823 28.5 16.308 C 28.5 9.401 22.907 3.808 16 3.808 Z"
  ></path>
</svg>
