<?xml version="1.0" encoding="utf-8"?>
<svg xmlns="http://www.w3.org/2000/svg" viewBox="0 0 128 128" fill="none" xmlns:bx="https://boxy-svg.com">
  <defs>
    <linearGradient id="grad1" x1="0%" y1="0%" x2="100%" y2="100%">
      <stop offset="0" style="stop-color:#00FFFF;stop-opacity:1"/>
      <stop offset="1" style="stop-color:#0088AA;stop-opacity:1"/>
    </linearGradient>
    <filter id="glow" x="-50%" y="-50%" width="200%" height="200%">
      <feGaussianBlur stdDeviation="3.5" result="coloredBlur"/>
      <feMerge>
        <feMergeNode in="coloredBlur"/>
        <feMergeNode in="SourceGraphic"/>
      </feMerge>
    </filter>
    <filter id="filter-1" x="-20%" y="-20%" width="140%" height="140%">
      <feDropShadow dx="0" dy="0" stdDeviation="4" flood-color="#00FFFF" flood-opacity="0.8"/>
    </filter>
    <linearGradient id="gradient-0" bx:pinned="true">
      <stop offset="0" style="stop-color: rgb(0, 253, 255);"/>
      <stop offset="0.524" style="stop-color: rgb(255, 255, 255);"/>
      <stop offset="1" style="stop-color: rgb(0, 253, 255);"/>
    </linearGradient>
    <linearGradient id="gradient-0-0" href="#gradient-0" gradientUnits="userSpaceOnUse" x1="64" y1="6.5" x2="64" y2="121.5"/>
  </defs>
  <rect width="128" height="128" fill="#111111" rx="60" ry="60"/>
  <path d="M 87.214 31.5 L 54.714 31.5 C 47.023 31.5 40.786 37.737 40.786 45.428 L 40.786 50.072 C 40.786 57.763 47.023 64 54.714 64 L 73.286 64 C 80.977 64 87.214 70.237 87.214 77.928 L 87.214 82.572 C 87.214 90.263 80.977 96.5 73.286 96.5 L 40.786 96.5" stroke="url(#grad1)" stroke-width="10" fill="none" stroke-linecap="round" stroke-linejoin="round" filter="url(#glow)" style="visibility: hidden;"/>
  <path d="M 89 34 C 89 19 39 19 39 44 C 39 59 89 59 89 84 C 89 109 39 109 39 94" stroke="#00FFFF" fill="none" stroke-linecap="round" stroke-linejoin="round" style="filter: url(&quot;#filter-1&quot;); stroke-width: 10px; stroke-opacity: 0.85;"/>
  <circle style="stroke-width: 5px; stroke: url(&quot;#gradient-0-0&quot;); stroke-opacity: 0.75;" cx="64" cy="64" r="57.5"/>
</svg>