<svg xmlns="http://www.w3.org/2000/svg" height="396px" viewBox="0 0 900 396" preserveAspectRatio="xMidYMid slice" role="img" aria-labelledby="titleDesc" xmlns:bx="https://boxy-svg.com" width="900px">
  <bx:title id="titleDesc">Portada LinkedIn - Ingeniero en Sistemas de Información</bx:title>
  <defs>
    <linearGradient id="bg-grad" x1="0%" y1="0%" x2="100%" y2="100%">
      <stop offset="0" stop-color="#0a0f1d"></stop>
      <stop offset="0.4" stop-color="#111827"></stop>
      <stop offset="1" stop-color="#062132"></stop>
    </linearGradient>
    <linearGradient id="accent-grad" x1="0%" y1="0%" x2="100%" y2="0%">
      <stop offset="0" stop-color="#00f2fe"></stop>
      <stop offset="1" stop-color="#4facfe"></stop>
    </linearGradient>
    <filter id="glow" x="-20%" y="-20%" width="140%" height="140%">
      <feGaussianBlur stdDeviation="3" result="blur"></feGaussianBlur>
      <feComposite in="SourceGraphic" in2="blur" operator="over"></feComposite>
    </filter>
    <linearGradient id="gradient-1" x1="0%" y1="0%" x2="100%" y2="100%">
      <stop offset="0" stop-color="#0a0f1d"></stop>
      <stop offset="0.4" stop-color="#111827"></stop>
      <stop offset="1" stop-color="#062132"></stop>
    </linearGradient>
  </defs>
  <g transform="matrix(1, 0, 0, 1, -297.000035, -62.000062)" style="">
    <rect width="1306.21" height="365.248" fill="url(#bg-grad)" style="fill-opacity: 0.75;" transform="matrix(0.922342, -0.386374, 0, 1.084196, 290.613865, 252.342609)"></rect>
    <rect width="1306.21" height="365.248" fill="url(#gradient-1)" style="stroke-width: 1; fill-opacity: 0.75;" transform="matrix(-0.922342, -0.386374, 0, 1.084196, 1203.386126, 252.342655)"></rect>
  </g>
  <g transform="matrix(1, 0, 0, 1, 46.999997, -2.75)" style="">
    <g transform="matrix(1, 0, 0, 1, 100.000001, 0)" fill="none" stroke-opacity="0.4" stroke-width="1.5">
      <path d="M 0,200 L 150,120 L 300,180 L 450,100 L 600,160" stroke="url(#accent-grad)" stroke-dasharray="4,4"></path>
      <path d="M 0,200 L 200,80 L 350,140 L 450,70 L 600,160" stroke="#ffffff" stroke-opacity="0.1"></path>
      <path d="M 150,120 L 200,80" stroke="#ffffff" stroke-opacity="0.2" stroke-width="0.5"></path>
      <path d="M 300,180 L 350,140" stroke="#ffffff" stroke-opacity="0.2" stroke-width="0.5"></path>
      <g fill="#00f2fe" filter="url(#glow)">
        <circle cx="0" cy="200" r="5" fill-opacity="0.7"></circle>
        <circle cx="150" cy="120" r="4"></circle>
        <circle cx="300" cy="180" r="5"></circle>
        <circle cx="450" cy="100" r="3"></circle>
        <circle cx="600" cy="160" r="6"></circle>
      </g>
    </g>
    <g fill="#ffffff" fill-opacity="0.08" stroke="#ffffff" stroke-width="1.5" stroke-opacity="0.08">
      <g transform="translate(140, 20) scale(1)">
        <path d="M12.75 12.508L21.25 9.108V14.7609C20.7449 14.4375 20.1443 14.25 19.5 14.25C17.7051 14.25 16.25 15.7051 16.25 17.5C16.25 19.2949 17.7051 20.75 19.5 20.75C21.2949 20.75 22.75 19.2949 22.75 17.5C22.75 17.5 22.75 17.5 22.75 17.5L22.75 7.94625C22.75 6.80342 22.75 5.84496 22.6696 5.08131C22.6582 4.97339 22.6448 4.86609 22.63 4.76597C22.5525 4.24426 22.4156 3.75757 22.1514 3.35115C22.0193 3.14794 21.8553 2.96481 21.6511 2.80739C21.6128 2.77788 21.573 2.74927 21.5319 2.7216L21.5236 2.71608C20.8164 2.2454 20.0213 2.27906 19.2023 2.48777C18.4102 2.68961 17.4282 3.10065 16.224 3.60469L14.13 4.48115C13.5655 4.71737 13.0873 4.91751 12.712 5.1248C12.3126 5.34535 11.9686 5.60548 11.7106 5.99311C11.4527 6.38075 11.3455 6.7985 11.2963 7.25204C11.25 7.67831 11.25 8.19671 11.25 8.80858V16.7609C10.7448 16.4375 10.1443 16.25 9.5 16.25C7.70507 16.25 6.25 17.7051 6.25 19.5C6.25 21.2949 7.70507 22.75 9.5 22.75C11.2949 22.75 12.75 21.2949 12.75 19.5C12.75 19.5 12.75 19.5 12.75 19.5L12.75 12.508Z"></path>
        <path d="M7.75 2C7.75 1.58579 7.41421 1.25 7 1.25C6.58579 1.25 6.25 1.58579 6.25 2V7.76091C5.74485 7.4375 5.14432 7.25 4.5 7.25C2.70507 7.25 1.25 8.70507 1.25 10.5C1.25 12.2949 2.70507 13.75 4.5 13.75C6.29493 13.75 7.75 12.2949 7.75 10.5V5.0045C8.44852 5.50913 9.27955 5.75 10 5.75C10.4142 5.75 10.75 5.41421 10.75 5C10.75 4.58579 10.4142 4.25 10 4.25C9.54565 4.25 8.9663 4.07389 8.51159 3.69837C8.0784 3.34061 7.75 2.79785 7.75 2Z"></path>
      </g>
      <g transform="translate(360, 10) scale(1)">
        <path d="M12 0C5.4 0 0 5.4 0 12s5.4 12 12 12 12-5.4 12-12S18.66 0 12 0zm5.521 17.34c-.24.359-.66.48-1.021.24-2.82-1.74-6.36-2.101-10.561-1.141-.418.122-.779-.179-.899-.539-.12-.421.18-.78.54-.9 4.56-1.021 8.52-.6 11.64 1.32.42.18.479.659.301 1.02zm1.44-3.3c-.301.42-.841.6-1.262.3-3.239-1.98-8.159-2.58-11.939-1.38-.479.12-1.02-.12-1.14-.6-.12-.48.12-1.021.6-1.141C9.6 9.9 15 10.561 18.72 12.84c.361.181.54.78.241 1.2zm.12-3.36C15.24 8.4 8.82 8.16 5.16 9.301c-.6.179-1.2-.181-1.38-.721-.18-.601.18-1.2.72-1.381 4.26-1.26 11.28-1.02 15.721 1.621.539.3.719 1.02.419 1.56-.299.421-1.02.599-1.559.3z" stroke="none"></path>
      </g>
      <g transform="translate(285, 95) ">
        <path d="M30.865 3.448l-6.583-3.167c-0.766-0.37-1.677-0.214-2.276 0.385l-12.609 11.505-5.495-4.167c-0.51-0.391-1.229-0.359-1.703 0.073l-1.76 1.604c-0.583 0.526-0.583 1.443-0.005 1.969l4.766 4.349-4.766 4.349c-0.578 0.526-0.578 1.443 0.005 1.969l1.76 1.604c0.479 0.432 1.193 0.464 1.703 0.073l5.495-4.172 12.615 11.51c0.594 0.599 1.505 0.755 2.271 0.385l6.589-3.172c0.693-0.333 1.13-1.031 1.13-1.802v-21.495c0-0.766-0.443-1.469-1.135-1.802zM24.005 23.266l-9.573-7.266 9.573-7.266z" stroke="none"></path>
      </g>
      <g transform="translate(530, 30) scale(1.5)">
        <path d="M14.364 0C13.882 0 13.492.392 13.492.877c0 .484.39.875.872.875.482 0 .872-.391.872-.875C15.236.392 14.846 0 14.364 0m-2.672 1.542c5.078 0 4.761 2.214 4.761 2.214l-.006 2.293h-4.845v.688h6.769s3.249-.371 3.249 4.779c0 5.15-2.835 4.968-2.835 4.968l-1.693-.001v-2.39c0 0 .091-2.85-2.79-2.85h-4.806s-2.7-.043-2.7-2.71v-4.409c0 0-.41-2.669 4.896-2.669m-2.815 18.458c.482 0 .871-.392.871-.876a.874.874 0 0 0-.871-.875.874.874 0 0 0-.872.875c0 .484.39.876.872.876m2.671 1.542c-5.077 0-4.76-2.214-4.76-2.214l.006-2.293h4.845v-.688H4.87s-3.249.371-3.249-4.779c0-5.15 2.836-4.968 2.836-4.968l1.692.001v2.39c0 0-.091 2.85 2.791 2.85h4.805s2.7.043 2.7 2.71v4.409c0 0 .41 2.669-4.896 2.669" stroke="none"></path>
      </g>
      <g transform="translate(80, 130) scale(2)">
        <path fill-rule="evenodd" clip-rule="evenodd" d="M20 5H5V20H20V5ZM11.0769 18H9.82349V13.0444H8.02637V12.011H12.874V13.0444H11.0769V18ZM18.2893 16.2153C18.2893 17.4023 17.3679 18.1536 15.8738 18.1536C14.4419 18.1536 13.5371 17.4688 13.4666 16.4062L13.4624 16.3398H14.6702L14.6743 16.3813C14.72 16.8296 15.2056 17.1326 15.907 17.1326C16.5752 17.1326 17.0359 16.813 17.0359 16.3523V16.3481C17.0359 15.9539 16.7412 15.7339 15.9983 15.5803L15.3674 15.4517C14.1223 15.1985 13.5869 14.6174 13.5869 13.7085V13.7043C13.5869 12.592 14.5415 11.8574 15.8696 11.8574C17.2683 11.8574 18.0901 12.5962 18.1689 13.5964L18.1731 13.6504H16.9944L16.9861 13.6006C16.9155 13.1731 16.5005 12.8743 15.8696 12.8743C15.2512 12.8784 14.8403 13.1606 14.8403 13.6089V13.613C14.8403 14.0032 15.1309 14.2356 15.8364 14.3809L16.4714 14.5095C17.7373 14.771 18.2893 15.2773 18.2893 16.2112V16.2153Z" stroke="none"></path>
      </g>
      <g transform="translate(680, 110) scale(2)">
        <path fill-rule="evenodd" d="M8 1C4.133 1 1 4.13 1 7.993c0 3.09 2.006 5.71 4.787 6.635.35.064.478-.152.478-.337 0-.166-.006-.606-.01-1.19-1.947.423-2.357-.937-2.357-.937-.319-.808-.778-1.023-.778-1.023-.635-.434.048-.425.048-.425.703.05 1.073.72 1.073.72.624 1.07 1.638.76 2.037.582.063-.452.244-.76.444-.935-1.554-.176-3.188-.776-3.188-3.456 0-.763.273-1.388.72-1.876-.072-.177-.312-.888.07-1.85 0 0 .586-.189 1.924.716A6.711 6.711 0 018 4.381c.595.003 1.194.08 1.753.236 1.336-.905 1.923-.717 1.923-.717.382.963.142 1.674.07 1.85.448.49.72 1.114.72 1.877 0 2.686-1.638 3.278-3.197 3.45.251.216.475.643.475 1.296 0 .934-.009 1.688-.009 1.918 0 .187.127.404.482.336A6.996 6.996 0 0015 7.993 6.997 6.997 0 008 1z" clip-rule="evenodd" stroke="none"></path>
      </g>
      <g transform="translate(680, 170) scale(1.5) ">
        <path d="M13.983 11.078h2.119a.186.186 0 00.186-.185V9.006a.186.186 0 00-.186-.186h-2.119a.185.185 0 00-.185.185v1.888c0 .102.083.185.185.185m-2.954-5.43h2.118a.186.186 0 00.186-.186V3.574a.186.186 0 00-.186-.185h-2.118a.185.185 0 00-.185.185v1.888c0 .102.082.185.185.185m0 2.716h2.118a.187.187 0 00.186-.186V6.29a.186.186 0 00-.186-.185h-2.118a.185.185 0 00-.185.185v1.887c0 .102.082.185.185.186m-2.93 0h2.12a.186.186 0 00.184-.186V6.29a.185.185 0 00-.185-.185H8.1a.185.185 0 00-.185.185v1.887c0 .102.083.185.185.186m-2.964 0h2.119a.186.186 0 00.185-.186V6.29a.185.185 0 00-.185-.185H5.136a.186.186 0 00-.186.185v1.887c0 .102.084.185.186.186m5.893 2.715h2.118a.186.186 0 00.186-.185V9.006a.186.186 0 00-.186-.186h-2.118a.185.185 0 00-.185.185v1.888c0 .102.082.185.185.185m-2.93 0h2.12a.185.185 0 00.184-.185V9.006a.185.185 0 00-.184-.186h-2.12a.185.185 0 00-.184.185v1.888c0 .102.083.185.185.185m-2.964 0h2.119a.185.185 0 00.185-.185V9.006a.185.185 0 00-.184-.186h-2.12a.186.186 0 00-.186.186v1.887c0 .102.084.185.186.185m-2.92 0h2.12a.185.185 0 00.184-.185V9.006a.185.185 0 00-.184-.186h-2.12a.185.185 0 00-.184.185v1.888c0 .102.082.185.185.185M23.763 9.89c-.065-.051-.672-.51-1.954-.51-.338.001-.676.03-1.01.087-.248-1.7-1.653-2.53-1.716-2.566l-.344-.199-.226.327c-.284.438-.49.922-.612 1.43-.23.97-.09 1.882.403 2.661-.595.332-1.55.413-1.744.42H.751a.751.751 0 00-.75.748 11.376 11.376 0 00.692 4.062c.545 1.428 1.355 2.48 2.41 3.124 1.18.723 3.1 1.137 5.275 1.137.983.003 1.963-.086 2.93-.266a12.248 12.248 0 003.823-1.389c.98-.567 1.86-1.288 2.61-2.136 1.252-1.418 1.998-2.997 2.553-4.4h.221c1.372 0 2.215-.549 2.68-1.009.309-.293.55-.65.707-1.046l.098-.288Z" stroke="none"></path>
      </g>
      <g transform="translate(380, 190) scale(1.5)">
        <path d="M6.078 12A5.928 5.928 0 0 1 12 6.078a5.946 5.946 0 0 1 5.129 2.959l-1.499.867 5.027-2.902a1.579 1.579 0 0 0-.543-.575l-7.345-4.24c-.424-.245-1.116-.245-1.539 0l-7.345 4.24c-.422.244-.768.844-.768 1.333v8.48c0 .245.086.517.226.758l3.529-2.038A5.883 5.883 0 0 1 6.078 12z" stroke="none"></path>
        <path d="M14.564 10.519A2.971 2.971 0 0 0 12 9.039a2.964 2.964 0 0 0-2.564 4.441L12 12l2.564-1.481z" stroke="none"></path>
        <path d="m20.657 7.002-5.046 2.913-1.046.605-.001-.001L12 12l-2.563 1.48A2.964 2.964 0 0 0 12 14.961a2.97 2.97 0 0 0 2.565-1.481l2.563 1.483a5.944 5.944 0 0 1-5.129 2.959 5.926 5.926 0 0 1-5.128-2.962l-3.529 2.038c.14.242.332.453.543.575l7.345 4.24c.423.245 1.115.245 1.539 0l7.345-4.24c.211-.122.403-.333.543-.575.14-.241.226-.513.226-.758V7.76c0-.245-.086-.517-.226-.758zm-2.735 5.327h-.658v.658h-.657v-.658h-.658v-.658h.658v-.658h.657v.658h.658v.658zm2.468 0h-.658v.658h-.658v-.658h-.657v-.658h.657v-.658h.658v.658h.658v.658z" stroke="none"></path>
      </g>
      <g transform="translate(530, 130) scale(1.5)">
        <path fill-rule="evenodd" clip-rule="evenodd" d="M3.25 6C3.25 4.45831 4.48029 3.26447 6.00774 2.50075C7.58004 1.7146 9.69967 1.25 12 1.25C14.3003 1.25 16.42 1.7146 17.9923 2.50075C19.5197 3.26447 20.75 4.45831 20.75 6V18C20.75 19.5417 19.5197 20.7355 17.9923 21.4992C16.42 22.2854 14.3003 22.75 12 22.75C9.69967 22.75 7.58004 22.2854 6.00774 21.4992C4.48029 20.7355 3.25 19.5417 3.25 18V6ZM4.75 6C4.75 5.33255 5.31057 4.52639 6.67856 3.84239C8.00168 3.18083 9.88205 2.75 12 2.75C14.118 2.75 15.9983 3.18083 17.3214 3.84239C18.6894 4.52639 19.25 5.33255 19.25 6C19.25 6.66745 18.6894 7.47361 17.3214 8.15761C15.9983 8.81917 14.118 9.25 12 9.25C9.88205 9.25 8.00168 8.81917 6.67856 8.15761C5.31057 7.47361 4.75 6.66745 4.75 6ZM4.75 18C4.75 18.6674 5.31057 19.4736 6.67856 20.1576C8.00168 20.8192 9.88205 21.25 12 21.25C14.118 21.25 15.9983 20.8192 17.3214 20.1576C18.6894 19.4736 19.25 18.6674 19.25 18V14.7072C18.8733 15.0077 18.4459 15.2724 17.9923 15.4992C16.42 16.2854 14.3003 16.75 12 16.75C9.69967 16.75 7.58004 16.2854 6.00774 15.4992C5.55414 15.2724 5.12675 15.0077 4.75 14.7072V18ZM19.25 8.70722V12C19.25 12.6674 18.6894 13.4736 17.3214 14.1576C15.9983 14.8192 14.118 15.25 12 15.25C9.88205 15.25 8.00168 14.8192 6.67856 14.1576C5.31057 13.4736 4.75 12.6674 4.75 12V8.70722C5.12675 9.00772 5.55414 9.27245 6.00774 9.49925C7.58004 10.2854 9.69967 10.75 12 10.75C14.3003 10.75 16.42 10.2854 17.9923 9.49925C18.4459 9.27245 18.8733 9.00772 19.25 8.70722Z" stroke="none"></path>
      </g>
      <g transform="translate(670, 260) scale(1) rotate(45)">
        <path d="M 0,40 L 5,0 L 10,40 Z M -5,45 L 15,45 L 10,48 L 0,48 Z M 3,48 L 7,48 L 6,60 L 4,60 Z" stroke="none"></path>
        <path d="M 5,0 Q 20,-10 15,10 T 30,5" fill="none" stroke-width="1.5"></path>
      </g>
      <g transform="translate(640, 340) scale(0.8)">
        <path fill="none" stroke-width="4" d="M29.113 8.613L13.732 23.994l10.274 10.274L34.28 23.994l-5.149-5.149l-5.161 5.161"></path>
        <path fill="none" stroke-width="4" d="M3.5 24L24 3.5L44.498 24l-20.5 20.5z"></path>
      </g>
      <g transform="translate(360, 340) scale(1.5)">
        <text x="0" y="20" font-family="monospace" letter-spacing="2" font-size="20" stroke="none" style="white-space: pre;"> _.icey._ </text>
      </g>
      <g transform="translate(520, 400) scale(1)">
        <g id="miku" transform="translate(0,0) scale(0.01, -0.01)" fill="#ffffff" fill-opacity="0.08" stroke="none">
          <path d="M6835 9120 c-184 -14 -221 -42 -315 -245 -27 -57 -52 -105 -57 -108
-4 -2 -66 22 -138 55 -349 161 -734 240 -1170 239 -409 0 -746 -68 -1177 -235
l-67 -26 -56 74 c-127 169 -213 211 -456 223 -138 7 -223 -6 -233 -35 -3 -9
-29 -87 -59 -172 l-53 -155 -64 -16 c-157 -38 -267 -105 -411 -248 -299 -300
-534 -843 -659 -1524 -12 -67 -14 -69 -54 -87 -23 -9 -46 -24 -52 -31 -23 -28
-45 -173 -60 -384 l-7 -100 -48 145 c-58 179 -124 361 -144 400 -8 16 -25 35
-37 41 -47 25 -277 -15 -380 -67 -38 -19 -48 -29 -48 -50 0 -26 111 -309 180
-459 22 -47 35 -85 31 -85 -5 0 -51 48 -103 108 -126 141 -182 192 -212 192
-19 0 -49 -27 -125 -111 -135 -150 -176 -210 -167 -245 4 -16 54 -73 119 -138
299 -296 687 -707 687 -728 0 -5 -24 -50 -53 -101 -183 -314 -466 -889 -581
-1181 -157 -395 -213 -676 -203 -1014 6 -208 24 -314 83 -490 71 -214 169
-379 313 -523 75 -75 107 -100 144 -112 52 -18 77 -14 77 12 0 9 -18 80 -39
159 -41 145 -58 232 -47 232 3 0 20 -28 37 -62 92 -185 281 -398 457 -517 233
-157 525 -251 780 -251 103 0 246 17 287 34 64 27 57 63 -31 159 -198 215
-318 497 -364 862 -22 169 -8 568 26 751 l6 31 50 -19 c136 -51 158 -74 217
-221 50 -123 95 -203 132 -230 60 -44 183 -30 238 27 33 34 61 102 61 147 0
41 53 79 199 145 330 147 503 271 651 468 24 31 44 55 46 53 6 -5 -149 -347
-197 -435 -52 -99 -142 -235 -289 -442 -198 -279 -194 -272 -177 -311 35 -83
217 -222 415 -319 l111 -54 1 -111 c0 -60 5 -148 10 -195 6 -47 13 -188 16
-315 6 -186 4 -255 -10 -362 -20 -155 -16 -171 62 -228 74 -53 144 -69 307
-70 274 0 303 30 375 385 32 157 132 604 151 673 l10 37 165 0 165 0 64 -132
c35 -73 86 -194 113 -268 45 -120 74 -211 167 -523 43 -147 103 -187 275 -187
136 0 312 56 358 115 42 53 47 92 33 278 -24 342 -60 644 -96 815 -25 122 -32
110 121 196 150 85 274 172 300 211 15 24 15 27 -23 97 -22 40 -89 150 -148
243 -132 206 -289 510 -384 743 -39 95 -71 175 -71 178 0 31 226 -317 400
-616 163 -279 311 -510 358 -557 35 -35 76 -46 222 -61 101 -11 121 -5 239 67
46 28 100 53 120 56 61 10 124 35 178 72 92 62 133 134 133 235 0 76 -19 116
-143 305 -105 159 -200 258 -452 468 -240 200 -306 264 -446 431 -237 284
-356 393 -547 503 -59 34 -113 65 -121 70 -12 8 -12 14 -2 39 10 23 31 37 106
71 105 48 250 139 314 196 l42 38 -57 -117 c-68 -139 -78 -199 -32 -204 42 -5
144 25 222 64 89 45 164 99 289 206 l98 84 79 12 c134 19 212 67 299 183 132
174 252 473 316 784 16 78 25 103 29 85 11 -47 25 -145 46 -310 12 -91 50
-370 85 -620 131 -926 159 -1165 177 -1483 22 -401 -18 -765 -123 -1125 -81
-278 -229 -577 -378 -762 -33 -41 -61 -83 -61 -92 0 -24 39 -48 80 -48 98 0
308 90 453 193 42 31 77 54 77 51 0 -2 -21 -46 -46 -97 -65 -129 -150 -249
-239 -337 -86 -85 -93 -109 -43 -140 48 -29 119 -33 253 -16 565 74 1062 402
1326 878 l40 73 -7 -45 c-13 -88 -43 -186 -88 -292 -25 -59 -46 -119 -46 -133
0 -23 4 -25 44 -25 116 0 300 149 431 348 277 423 347 976 199 1567 -55 220
-170 519 -444 1150 -255 589 -324 763 -441 1116 -86 260 -179 590 -263 926
-137 548 -224 806 -372 1092 -110 214 -190 328 -318 456 -152 151 -275 218
-423 232 -47 4 -66 11 -74 24 -5 10 -30 78 -55 151 -26 73 -57 156 -69 184
-20 46 -26 52 -61 57 -76 12 -181 15 -279 7z m128 -125 c16 -15 108 -259 282
-745 150 -419 192 -546 200 -603 7 -44 5 -51 -21 -78 -16 -17 -44 -40 -63 -51
-27 -17 -35 -19 -42 -7 -5 8 -9 19 -9 25 0 17 -103 337 -158 489 -49 138 -259
696 -327 869 -20 49 -34 90 -33 91 31 25 150 32 171 10z m-3490 -36 c29 -8 38
-15 34 -27 -17 -58 -150 -339 -215 -457 -66 -120 -285 -461 -314 -490 -16 -16
-3 22 112 315 59 151 129 331 155 400 26 69 63 158 82 198 33 70 35 72 71 72
20 0 54 -5 75 -11z m1879 -49 c263 -17 495 -61 708 -135 298 -103 680 -360
757 -509 34 -67 142 -363 192 -526 165 -545 188 -945 85 -1455 -78 -383 -197
-677 -398 -975 -83 -124 -255 -301 -333 -343 -29 -16 -53 -25 -53 -21 0 4 14
50 31 103 79 246 148 559 204 922 29 188 38 225 66 280 32 61 33 70 37 202 10
330 -49 702 -160 1012 -53 147 -159 361 -201 408 -69 74 -77 31 -17 -91 126
-262 217 -565 256 -852 19 -141 29 -421 20 -513 l-8 -67 -36 29 c-49 39 -535
547 -657 686 -122 141 -305 374 -383 490 -33 50 -92 151 -132 225 -82 152 -94
170 -124 170 -32 0 -44 -12 -61 -59 -35 -99 -149 -775 -174 -1031 -36 -356
-44 -435 -50 -456 -6 -23 -11 -20 -95 53 -328 287 -546 735 -563 1158 -9 198
23 387 87 517 36 74 38 98 10 98 -53 0 -170 -157 -190 -256 -12 -57 -37 -95
-201 -306 -179 -229 -318 -458 -473 -780 -147 -303 -270 -615 -317 -802 -29
-118 -50 -177 -59 -171 -15 9 -69 173 -85 257 -87 471 10 1073 257 1590 38 81
68 153 66 159 -7 22 -84 -59 -139 -144 -73 -113 -159 -299 -207 -447 -51 -155
-62 -198 -111 -437 -30 -149 -48 -211 -81 -284 -23 -52 -71 -159 -107 -239
-35 -80 -68 -149 -73 -154 -30 -30 -24 468 9 663 52 301 153 615 264 816 253
459 532 734 949 935 381 183 749 264 1313 288 17 1 96 -3 177 -8z m2105 -361
c231 -110 457 -403 622 -808 100 -244 185 -525 316 -1051 184 -734 306 -1081
703 -1981 219 -498 283 -662 356 -918 134 -467 139 -846 15 -1216 -38 -113
-169 -383 -199 -410 l-23 -20 6 20 c15 50 38 209 48 338 21 265 -18 685 -76
824 -22 52 -31 32 -40 -92 -27 -401 -154 -784 -353 -1065 -87 -124 -262 -303
-369 -379 -165 -118 -414 -228 -629 -281 -140 -34 -144 -30 -73 65 124 167
267 512 318 765 34 165 44 320 22 320 -3 0 -39 -66 -80 -147 -40 -82 -102
-193 -138 -248 -80 -123 -231 -275 -321 -323 -34 -18 -62 -31 -62 -29 0 3 16
34 36 69 184 322 311 781 355 1277 16 186 6 621 -20 896 -28 288 -163 1320
-301 2315 -47 334 -90 705 -90 772 0 56 25 90 110 148 32 22 68 52 80 67 44
55 20 150 -164 673 -84 237 -132 371 -161 443 -7 16 -4 17 21 12 16 -4 57 -20
91 -36z m-4477 28 c0 -2 -23 -54 -51 -117 -239 -539 -350 -838 -333 -892 3
-11 22 -38 41 -59 l35 -39 -31 -97 c-103 -323 -158 -752 -133 -1047 17 -201
74 -416 117 -432 37 -14 56 22 146 274 33 92 64 171 69 176 16 16 12 -299 -6
-426 -30 -222 -257 -1405 -272 -1420 -12 -12 -233 494 -287 657 -68 202 -80
283 -79 550 0 186 5 287 23 450 16 142 24 272 25 400 1 171 -1 194 -19 230
-25 49 -72 82 -131 91 -24 3 -44 9 -44 13 0 21 65 313 90 408 70 258 188 564
290 746 93 168 216 324 324 412 72 58 226 141 226 122z m2300 -979 c61 -103
208 -320 284 -419 l65 -84 -82 -6 c-94 -6 -158 -24 -187 -51 -22 -21 -24 -27
-11 -47 8 -12 19 -11 73 4 38 12 95 19 143 19 118 0 171 -28 294 -151 130
-130 594 -621 602 -636 10 -17 -65 -488 -101 -637 -77 -319 -119 -388 -312
-514 -262 -171 -541 -271 -893 -323 -145 -21 -539 -24 -685 -5 -613 80 -1038
315 -1150 635 -24 68 -26 175 -5 262 18 77 18 173 0 250 -23 93 -19 159 16
270 78 250 249 631 316 706 47 52 133 94 224 109 62 11 76 10 145 -11 64 -19
77 -20 85 -8 15 23 6 42 -29 65 -62 42 -229 44 -320 4 -25 -11 -47 -19 -49
-17 -6 6 73 151 139 257 67 107 205 302 254 358 l31 37 7 -75 c20 -210 60
-383 128 -554 99 -251 261 -488 447 -653 159 -142 257 -204 291 -183 7 5 20
69 31 166 47 393 63 516 100 774 38 265 74 486 85 523 8 25 16 16 64 -65z
m2065 -370 c4 -13 10 -114 12 -225 5 -201 -8 -398 -27 -417 -6 -6 -10 -8 -11
-5 0 2 -7 110 -15 239 -8 129 -17 272 -20 317 -5 60 -3 87 6 98 18 22 47 18
55 -7z m-5890 -435 c17 -45 264 -743 275 -778 22 -70 72 -185 80 -185 16 0 30
102 55 398 33 387 43 442 87 490 24 25 60 28 119 10 l39 -11 0 -76 c0 -42 -9
-202 -20 -356 -21 -301 -26 -678 -10 -815 25 -218 73 -362 242 -739 137 -305
162 -379 154 -446 -3 -27 -14 -61 -24 -75 -22 -30 -123 -93 -132 -82 -4 4 -22
50 -40 102 -78 223 -228 551 -340 745 -179 312 -307 467 -790 957 -157 160
-286 293 -287 296 -4 10 115 167 126 167 9 0 328 -311 516 -504 125 -129 147
-146 171 -137 26 10 14 47 -83 249 -145 304 -344 760 -334 770 8 8 130 34 167
36 12 1 25 -7 29 -16z m1483 -1569 c126 -256 284 -432 492 -546 148 -81 173
-75 214 56 16 47 31 86 35 86 5 0 50 -20 102 -44 79 -36 259 -95 409 -133 l35
-9 -60 -30 c-33 -16 -144 -89 -247 -162 -103 -73 -213 -148 -244 -167 -71 -43
-77 -43 -439 -14 -143 11 -326 21 -406 22 -140 1 -145 2 -142 22 52 329 176
996 190 1018 7 12 8 11 61 -99z m-1207 -139 c139 -208 356 -672 438 -939 27
-88 26 -119 -4 -195 -21 -51 -26 -79 -26 -154 0 -115 24 -197 86 -293 53 -81
54 -99 25 -258 -76 -413 -35 -883 109 -1245 51 -128 110 -237 168 -307 23 -30
43 -56 43 -59 0 -11 -172 -4 -252 10 -499 87 -918 487 -1068 1022 -39 139 -47
188 -65 386 -11 124 -12 199 -5 287 8 116 2 188 -14 162 -4 -7 -25 -69 -47
-137 -45 -146 -75 -296 -89 -450 -6 -60 -13 -139 -16 -175 -6 -67 20 -373 36
-431 15 -53 4 -45 -39 28 -201 339 -249 800 -132 1279 86 347 377 1012 661
1508 l73 128 19 -23 c10 -13 55 -78 99 -144z m3853 -442 c-157 -223 -322 -412
-375 -428 -18 -6 -41 12 -138 109 -64 63 -137 132 -163 152 -53 40 -54 42 -35
67 9 12 50 22 157 37 159 23 361 66 485 104 122 37 123 36 69 -41z m179 -89
c29 -15 92 -54 141 -87 99 -68 255 -212 219 -202 -43 12 -118 8 -149 -8 -16
-8 -54 -37 -82 -64 -70 -66 -69 -83 11 -174 34 -39 74 -87 89 -107 l27 -35 31
33 c16 18 30 36 30 40 0 5 -30 44 -66 89 -71 87 -71 90 -17 136 l33 27 37 -23
c84 -50 225 -172 212 -182 -2 -2 -38 -27 -79 -55 -41 -28 -111 -81 -155 -117
-44 -36 -89 -65 -101 -65 -36 0 -56 32 -48 79 4 23 3 41 -3 41 -5 0 -28 -14
-50 -30 l-41 -30 -37 60 c-43 71 -143 280 -174 365 -25 65 -23 112 6 169 23
45 102 166 108 166 3 0 29 -12 58 -26z m-1050 -1 c31 -3 57 -9 57 -12 0 -4
-29 -29 -65 -55 -35 -26 -105 -91 -154 -144 l-90 -96 -21 49 c-11 27 -31 77
-43 112 l-22 64 53 51 53 51 87 -7 c48 -4 113 -9 145 -13z m-493 -96 c0 -36
-135 -481 -158 -521 -2 -5 -25 32 -51 81 -25 49 -70 123 -99 165 l-52 77 74
50 c99 67 268 171 278 171 4 0 8 -10 8 -23z m640 -78 c28 -22 53 -46 56 -52 2
-7 1 -51 -3 -97 l-8 -85 -120 4 c-66 1 -121 4 -122 5 -4 4 27 158 36 174 12
23 87 92 100 92 5 0 32 -18 61 -41z m-506 -146 c60 -158 91 -172 170 -76 28
34 54 62 57 62 3 1 -18 -83 -48 -186 -97 -342 -174 -733 -177 -895 -1 -99 6
-115 92 -185 l51 -42 -59 -36 c-33 -20 -84 -59 -114 -86 -30 -27 -56 -49 -59
-49 -3 0 -82 46 -174 102 -174 105 -263 166 -263 180 0 5 15 39 34 76 129 256
305 733 416 1122 29 104 30 105 39 94 5 -5 20 -41 35 -81z m1127 -10 c12 -38
54 -142 94 -233 117 -267 385 -907 385 -918 0 -13 -294 -175 -544 -299 l-198
-98 -32 40 c-59 76 -125 134 -188 166 l-63 32 35 26 c19 14 61 51 94 83 44 43
57 62 52 75 -12 31 -54 291 -70 438 -34 311 -43 665 -16 665 5 0 36 -31 71
-70 43 -49 69 -70 85 -70 26 0 149 103 219 183 22 25 43 46 47 46 3 1 16 -29
29 -66z m-1616 -158 c24 -38 58 -100 75 -137 27 -57 30 -70 19 -90 -16 -32
-60 -78 -74 -78 -7 0 -25 39 -40 88 -15 48 -52 136 -82 196 -30 59 -53 109
-51 110 50 37 51 37 81 8 16 -15 48 -58 72 -97z m-1084 67 c77 -50 135 -148
160 -271 13 -67 7 -257 -9 -273 -10 -10 -73 106 -123 227 -41 101 -57 125 -80
125 -25 0 -33 -36 -24 -106 8 -68 0 -66 -69 16 -52 61 -106 164 -106 203 0 13
10 37 22 52 48 62 154 74 229 27z m260 -30 c202 -208 241 -684 71 -874 -24
-26 -48 -46 -52 -43 -15 9 -40 142 -40 209 0 35 7 98 16 138 26 119 32 188 23
270 -10 89 -50 221 -88 293 -14 28 -27 53 -29 58 -2 4 7 7 19 7 15 0 43 -21
80 -58z m-596 -119 c39 -98 86 -162 201 -277 93 -92 104 -106 104 -138 0 -69
-99 -137 -200 -138 -183 0 -343 234 -290 425 16 56 68 131 117 168 20 15 38
27 39 27 1 0 14 -30 29 -67z m2459 -110 c10 -252 49 -588 86 -738 9 -37 8 -42
-18 -63 -65 -56 -132 -103 -193 -136 l-66 -36 -64 32 c-80 40 -204 157 -196
184 4 11 20 98 37 194 37 210 99 493 151 693 l10 37 123 0 123 0 7 -167z
m1534 33 c3 -14 -41 -63 -154 -175 -87 -86 -167 -166 -178 -178 -24 -26 -32
-21 -66 41 l-24 46 34 36 c39 39 132 112 255 197 84 59 127 69 133 33z m-3559
-520 c42 -87 93 -272 93 -334 1 -87 -51 -135 -106 -98 -32 21 -67 86 -131 246
l-55 135 28 19 c15 11 47 41 72 67 53 55 57 53 99 -35z m4295 -187 l26 -31
-22 -41 c-33 -60 -181 -205 -267 -262 -85 -56 -244 -127 -274 -123 -11 2 -22
8 -24 14 -2 6 49 51 113 100 164 125 270 220 334 302 30 39 62 71 72 71 9 1
28 -13 42 -30z m138 -196 c36 -42 40 -61 20 -106 -43 -97 -156 -155 -276 -142
-92 9 -94 15 -23 68 34 26 98 80 142 122 82 78 110 89 137 58z m-1045 -417
c49 -75 55 -64 -78 -149 -96 -62 -221 -127 -243 -127 -11 0 -54 98 -68 156 -3
10 312 181 337 183 6 0 29 -28 52 -63z m-2641 17 c226 -139 349 -193 582 -253
35 -9 42 -15 42 -36 0 -24 -29 -164 -34 -164 -24 0 -250 85 -338 127 l-117 56
26 44 c20 34 23 47 14 56 -9 9 -14 9 -20 -1 -4 -7 -15 -10 -24 -6 -9 3 -34 -4
-55 -16 l-40 -22 -43 30 c-63 43 -139 116 -139 133 0 17 63 89 77 89 5 0 36
-16 69 -37z m2169 -254 c20 -51 32 -95 28 -100 -27 -26 -350 -115 -389 -107
-13 2 -22 22 -35 83 -10 44 -16 87 -13 96 3 12 42 26 127 48 101 26 237 66
243 70 1 1 18 -40 39 -90z m-1279 -55 c148 -21 462 -21 618 1 65 8 120 14 121
13 6 -8 45 -192 41 -195 -2 -2 -48 -11 -102 -20 -130 -21 -574 -24 -689 -5
-128 21 -154 30 -150 50 25 123 38 172 44 172 4 0 57 -7 117 -16z m1364 -205
c0 -84 -333 -251 -505 -253 l-70 -1 -44 65 -43 65 33 7 c19 4 95 19 169 33
138 27 320 79 400 113 49 21 60 16 60 -29z m-1755 -33 c66 -19 147 -39 180
-45 201 -34 255 -45 266 -52 18 -11 -16 -95 -47 -116 -39 -25 -102 -26 -202
-4 -92 20 -239 83 -277 118 -41 38 -57 62 -65 97 -10 46 -8 46 145 2z m211
-986 c68 -15 93 -33 78 -57 -16 -26 -75 -35 -194 -31 -141 6 -232 45 -214 93
7 16 19 17 143 12 75 -3 159 -11 187 -17z m1650 8 c11 -17 -49 -63 -109 -82
-29 -10 -89 -22 -134 -27 -90 -11 -123 -3 -150 38 -13 19 -12 23 7 33 26 14
245 47 322 49 34 1 60 -4 64 -11z"></path>
          <path d="M5590 6491 c-89 -29 -166 -97 -202 -177 -19 -44 -17 -64 5 -64 7 0
43 23 81 50 58 42 96 61 96 47 0 -2 -11 -30 -24 -63 -45 -111 -59 -204 -53
-343 10 -243 82 -378 219 -416 80 -21 151 -10 222 36 60 37 99 118 122 251 29
168 7 352 -57 481 -68 133 -165 199 -303 204 -45 1 -92 -1 -106 -6z"></path>
          <path d="M3820 6476 c-30 -6 -71 -21 -91 -34 -44 -27 -121 -108 -143 -150 -19
-36 -22 -102 -4 -102 6 0 35 24 64 54 55 57 106 89 163 100 29 5 32 4 25 -12
-4 -9 -22 -59 -40 -110 -99 -285 -44 -621 113 -688 50 -21 117 -17 171 10 116
59 155 165 155 416 -1 149 -20 246 -68 339 -71 142 -200 208 -345 177z"></path>
          <path d="M4710 5385 c-8 -2 -48 -9 -88 -15 -98 -16 -136 -48 -152 -126 -20
-95 8 -234 60 -296 17 -20 56 -49 88 -65 55 -27 63 -28 202 -28 130 0 150 2
195 23 115 53 165 141 165 290 0 101 -17 146 -67 175 -48 28 -327 57 -403 42z
m332 -140 c42 -15 47 -19 43 -43 -2 -15 -6 -48 -9 -75 -14 -126 -101 -187
-265 -187 -65 0 -86 5 -131 28 -71 35 -94 79 -98 184 -4 84 0 90 73 109 55 15
335 3 387 -16z"></path>
        </g>
      </g>
    </g>
  </g>
  <g transform="matrix(1, 0, 0, 1, -714.659557, 0)" style="">
    <polygon points="750 198 801.802 0 1614.06 0 1614.06 396 801.802 396" fill="#000000" fill-opacity="0.3" style=""></polygon>
    <path d="M 800,0 L 750,198 L 800,396" fill="none" stroke="url(#accent-grad)" stroke-width="3" stroke-opacity="0.6" style=""></path>
    <g transform="matrix(1, 0, 0, 1, 800.000012, 150.000002)" font-family="system-ui, -apple-system, 'Segoe UI', Roboto, sans-serif">
      <text x="0" y="0" font-size="44" font-weight="800" letter-spacing="-0.5" fill="#ffffff" style="white-space: pre;">INGENIERO
            EN</text>
      <text x="0" y="50" font-size="44" font-weight="900" letter-spacing="-0.5" fill="url(#accent-grad)" style="white-space: pre;">SISTEMAS DE INFORMACIÓN</text>
      <rect x="0" y="80" width="650" height="4" fill="#00f2fe" rx="2"></rect>
      <text x="0" y="120" font-size="25" font-weight="500" fill="#ffffff" fill-opacity="0.95" style="white-space: pre;">
            Arquitectura de Software • Análisis de Datos • Infraestructura
        </text>
      <text x="0" y="150" font-size="22" font-weight="400" fill="#ffffff" fill-opacity="0.6" style="white-space: pre;">
            Transformando complejidad abstracta en soluciones tecnológicas eficientes
        </text>
    </g>
  </g>
</svg>
