<?xml version="1.0" encoding="utf-8"?>
<svg xmlns="http://www.w3.org/2000/svg" height="24px" viewBox="0 -960 960 960" width="24px" fill="#e3e3e3" xmlns:bx="https://boxy-svg.com">
  <path d="M480-120q-150 0-255-105T120-480q0-150 105-255t255-105q14 0 27.5 1t26.5 3q-41 29-65.5 75.5T444-660q0 90 63 153t153 63q55 0 101-24.5t75-65.5q2 13 3 26.5t1 27.5q0 150-105 255T480-120Zm0-80q88 0 158-48.5T740-375q-20 5-40 8t-40 3q-123 0-209.5-86.5T364-660q0-20 3-40t8-40q-78 32-126.5 102T200-480q0 116 82 198t198 82Zm-10-270Z"/>
  <path d="M 526.4 219.6 L 531.703 264.297 L 576.4 269.6 L 531.703 274.903 L 526.4 319.6 L 521.097 274.903 L 476.4 269.6 L 521.097 264.297 Z" bx:shape="star 526.4 269.6 50 50 0.15 4 1@76b16144" style="transform-box: fill-box; transform-origin: 50% 50%;" transform="matrix(1, 0.000038, -0.000038, 1, 113.210025, -912.097808)"/>
  <path d="M 526.4 232.1 L 530.377 265.623 L 563.9 269.6 L 530.377 273.577 L 526.4 307.1 L 522.423 273.577 L 488.9 269.6 L 522.423 265.623 Z" bx:shape="star 526.4 269.6 37.5 37.5 0.15 4 1@6af5d2af" style="stroke-width: 1; transform-origin: 526.4px 269.6px;" transform="matrix(1, 0.000038, -0.000038, 1, 161.456112, -1060.178499)"/>
  <path d="M 526.4 219.6 L 531.703 264.297 L 576.4 269.6 L 531.703 274.903 L 526.4 319.6 L 521.097 274.903 L 476.4 269.6 L 521.097 264.297 Z" bx:shape="star 526.4 269.6 50 50 0.15 4 1@76b16144" style="stroke-width: 1; transform-origin: 526.4px 269.6px;" transform="matrix(1, 0.000038, -0.000038, 1, -254.38534, -1156.297397)"/>
  <path d="M 526.4 244.6 L 529.052 266.948 L 551.4 269.6 L 529.052 272.252 L 526.4 294.6 L 523.748 272.252 L 501.4 269.6 L 523.748 266.948 Z" bx:shape="star 526.4 269.6 25 25 0.15 4 1@c62b6ed8" style="stroke-width: 1; transform-origin: 526.4px 269.6px;" transform="matrix(1, 0.000038, -0.000038, 1, -404.781857, -1108.898837)"/>
  <path d="M 526.4 219.6 L 531.703 264.297 L 576.4 269.6 L 531.703 274.903 L 526.4 319.6 L 521.097 274.903 L 476.4 269.6 L 521.097 264.297 Z" bx:shape="star 526.4 269.6 50 50 0.15 4 1@76b16144" style="transform-origin: 526.4px 269.6px; stroke-width: 1;" transform="matrix(1, 0.000038, -0.000038, 1, -317.97314, -407.373771)"/>
  <path d="M 526.4 232.1 L 530.377 265.623 L 563.9 269.6 L 530.377 273.577 L 526.4 307.1 L 522.423 273.577 L 488.9 269.6 L 522.423 265.623 Z" bx:shape="star 526.4 269.6 37.5 37.5 0.15 4 1@6af5d2af" style="stroke-width: 1; transform-origin: 526.4px 269.6px;" transform="matrix(1, 0.000038, -0.000038, 1, 194.810299, -380.987723)"/>
  <path d="M 526.4 232.1 L 530.377 265.623 L 563.9 269.6 L 530.377 273.577 L 526.4 307.1 L 522.423 273.577 L 488.9 269.6 L 522.423 265.623 Z" bx:shape="star 526.4 269.6 37.5 37.5 0.15 4 1@6af5d2af" style="stroke-width: 1; transform-origin: 526.4px 269.6px;" transform="matrix(1, 0.000038, -0.000038, 1, 255.495145, -864.264311)"/>
</svg>