<?xml version="1.0" encoding="utf-8"?>
<svg xmlns="http://www.w3.org/2000/svg" viewBox="0 0 128 128" fill="none" xmlns:bx="https://boxy-svg.com">
  <defs>
    <linearGradient id="gradient-1" bx:pinned="true">
      <stop offset="0" style="stop-color: rgb(145, 145, 145);"/>
      <stop offset="0.5" style="stop-color: rgb(255, 255, 255);"/>
      <stop offset="1" style="stop-color: rgb(161, 161, 161);"/>
    </linearGradient>
    <linearGradient id="gradient-1-0" href="#gradient-1" gradientUnits="userSpaceOnUse" x1="64" y1="32" x2="64" y2="96"/>
    <linearGradient gradientUnits="userSpaceOnUse" x1="63.843" y1="0" x2="63.843" y2="128" id="gradient-0" gradientTransform="matrix(0.516802, -0.856105, 0.216934, 0.130956, 3.081219, 165.893935)">
      <stop offset="0" style="stop-color: rgb(5.8824% 5.8824% 7.0588%)"/>
      <stop offset="1" style="stop-color: rgb(3.6632% 3.6632% 5.188%)"/>
    </linearGradient>
  </defs>
  <rect width="128" height="128" rx="32" x="-0.157" style="pointer-events: none; fill: url(&quot;#gradient-0&quot;);"/>
  <path d="M 51.814 1.914 L 78.481 65.914 L 25.148 65.914 L 51.814 1.914 Z" bx:shape="triangle 25.148 1.914 53.333 64 0.5 0 1@bd2fb871" style="fill: rgb(216, 216, 216); pointer-events: none;" transform="matrix(0.9999489, 0.01010924, -0.01010924, 0.9999489, 12.53099365, -2.16812948)"/>
  <path d="M 51.814 1.914 L 78.481 65.914 L 25.148 65.914 L 51.814 1.914 Z" bx:shape="triangle 25.148 1.914 53.333 64 0.5 0 1@bd2fb871" style="fill: rgb(216, 216, 216); stroke-width: 1; pointer-events: none;" transform="matrix(0.9999489, -0.010109, -0.010109, -0.9999489, 12.53098574, 130.16812662)"/>
  <path style="stroke-width: 1; transform-origin: 71px 80px; fill: rgb(0, 0, 0); stroke: rgb(15, 15, 18); pointer-events: none; stroke-opacity: 0;" d="M 78 32 L 51 96 L 64.5 128 L 85 92 L 74 96 L 91.5 64 L 78 32 Z" transform="matrix(-1, 0, 0, -1, -0.000001, 0.000007)"/>
  <path style="fill: rgb(255, 0, 0); stroke: rgb(15, 15, 18); pointer-events: none; stroke-opacity: 0;" d="M 64 0 L 37 64 L 50.5 96 L 71 60 L 60 64 L 77.5 32 L 64 0 Z"/>
  <path style="opacity: 0.75; stroke: url(&quot;#gradient-1-0&quot;);" d="M 50.5 96 L 71 60 L 60 64 L 77.5 32"/>
  <path style="pointer-events: none; stroke: rgb(15, 15, 18);" d="M 64 0 L 37 64 L 64 128 L 91 64 L 64 0 Z"/>
</svg>